<svg width="17" height="16" viewBox="0 0 17 16" fill="none" xmlns="http://www.w3.org/2000/svg">
<path d="M4.61133 6.18566C4.61133 5.63551 4.82987 5.1079 5.21889 4.71889C5.6079 4.32987 6.13551 4.11133 6.68566 4.11133H13.4259C13.6983 4.11133 13.968 4.16498 14.2197 4.26923C14.4714 4.37347 14.7 4.52627 14.8927 4.71889C15.0853 4.91151 15.2381 5.14018 15.3423 5.39185C15.4466 5.64352 15.5002 5.91326 15.5002 6.18566V12.9259C15.5002 13.1983 15.4466 13.468 15.3423 13.7197C15.2381 13.9714 15.0853 14.2 14.8927 14.3927C14.7 14.5853 14.4714 14.7381 14.2197 14.8423C13.968 14.9466 13.6983 15.0002 13.4259 15.0002H6.68566C6.41326 15.0002 6.14352 14.9466 5.89185 14.8423C5.64018 14.7381 5.41151 14.5853 5.21889 14.3927C5.02627 14.2 4.87347 13.9714 4.76923 13.7197C4.66498 13.468 4.61133 13.1983 4.61133 12.9259V6.18566Z" stroke="#3C89FA" strokeWidth="1.55556" strokeLinecap="round" strokeLinejoin="round"/>
<path d="M2.28711 11.6843C2.04833 11.5487 1.84973 11.3522 1.71148 11.1149C1.57323 10.8776 1.50026 10.608 1.5 10.3333V2.55556C1.5 1.7 2.2 1 3.05556 1H10.8333C11.4167 1 11.734 1.29944 12 1.77778" stroke="#3C89FA" strokeWidth="1.55556" strokeLinecap="round" strokeLinejoin="round"/>
</svg>
