<svg width="81" height="80" viewBox="0 0 81 80" fill="none" xmlns="http://www.w3.org/2000/svg">
<circle cx="40.5" cy="40" r="40" fill="url(#paint0_linear_823_1903)"/>
<path d="M58.0825 21.4106C57.3017 20.6312 56.0372 20.6312 55.2565 21.4106L33.6249 43.0056C32.8441 43.7851 31.5796 43.7851 30.7989 43.0056L25.6927 37.9081C24.9119 37.1286 23.6474 37.1286 22.8667 37.9081L17.9178 42.8485C17.1352 43.6298 17.1352 44.898 17.9178 45.6793L24.4322 52.1827L30.8497 58.5894C31.6304 59.3688 32.8949 59.3688 33.6757 58.5894L40.0424 52.2335L63.0822 29.2327C63.8648 28.4514 63.8648 27.1832 63.0822 26.4019L58.0825 21.4106Z" fill="white"/>
<defs>
<linearGradient id="paint0_linear_823_1903" x1="80.5" y1="2.38419e-06" x2="0.499993" y2="80" gradientUnits="userSpaceOnUse">
<stop stop-color="#3095FF"/>
<stop offset="1" stop-color="#735CFF"/>
</linearGradient>
</defs>
</svg>
