<svg width="81" height="80" viewBox="0 0 81 80" fill="none" xmlns="http://www.w3.org/2000/svg">
<circle cx="40.5" cy="40" r="40" fill="url(#paint0_linear_823_1911)"/>
<path fill-rule="evenodd" clip-rule="evenodd" d="M31.2837 38.7404C32.0648 39.5215 32.0648 40.7878 31.2837 41.5689L22.0858 50.7668C21.3047 51.5479 21.3047 52.8142 22.0858 53.5952L27.2141 58.7236C27.9952 59.5046 29.2615 59.5046 30.0426 58.7236L39.2405 49.5257C40.0216 48.7446 41.2879 48.7446 42.0689 49.5257L51.2669 58.7236C52.0479 59.5046 53.3143 59.5046 54.0953 58.7236L59.2237 53.5952C60.0047 52.8142 60.0047 51.5479 59.2237 50.7668L50.0257 41.5689C49.2447 40.7878 49.2447 39.5215 50.0257 38.7404L59.2236 29.5426C60.0046 28.7615 60.0046 27.4952 59.2236 26.7141L54.0952 21.5858C53.3142 20.8047 52.0479 20.8047 51.2668 21.5858L42.0689 30.7836C41.2879 31.5647 40.0216 31.5647 39.2405 30.7836L30.0427 21.5858C29.2616 20.8047 27.9953 20.8047 27.2142 21.5858L22.0859 26.7141C21.3048 27.4952 21.3048 28.7615 22.0859 29.5426L31.2837 38.7404Z" fill="white"/>
<defs>
<linearGradient id="paint0_linear_823_1911" x1="80.5" y1="2.38419e-06" x2="0.499993" y2="80" gradientUnits="userSpaceOnUse">
<stop stop-color="#3095FF"/>
<stop offset="1" stop-color="#735CFF"/>
</linearGradient>
</defs>
</svg>
