<svg width="879" height="907" viewBox="0 0 879 907" fill="none" xmlns="http://www.w3.org/2000/svg">
<g filter="url(#filter0_f_850_1284)">
<rect width="163.571" height="145.73" transform="matrix(-0.995435 -0.482963 -0.275856 0.836516 379.354 555.274)" fill="#533BEB"/>
</g>
<g filter="url(#filter1_d_850_1284)">
<rect width="163.571" height="145.73" transform="matrix(-0.995435 -0.482963 -0.275856 0.836516 379.354 555.274)" fill="#533BEB"/>
<path fill-rule="evenodd" clip-rule="evenodd" d="M584.258 547.121C537.799 580.83 483.566 602.293 430.001 608.646C411.593 610.83 393.255 624.692 388.605 642.046L373.45 698.606C368.8 715.96 350.466 730.028 332.5 730.028H202.378C184.412 730.028 173.617 715.96 178.267 698.606L309.612 208.422C314.262 191.068 332.596 177 350.562 177L513.213 177C577.057 177 632.166 199.843 666.416 240.503C700.666 281.163 711.251 336.31 695.844 393.812C680.436 451.314 640.297 506.461 584.258 547.121Z" fill="black"/>
<path fill-rule="evenodd" clip-rule="evenodd" d="M178.083 592.95L408.74 481.04C419.471 475.833 430.58 478.923 433.554 487.94L442.871 516.195C447.016 528.764 465.798 528.764 476.678 516.195L654.468 310.815C665.349 298.247 660.168 282.536 645.143 282.536L399.625 282.536C384.599 282.536 370.999 298.247 375.144 310.815L382.585 333.38C385.559 342.398 379.27 353.928 368.54 359.134L221.635 430.409L178.083 592.95Z" fill="url(#paint0_linear_850_1284)"/>
</g>
<defs>
<filter id="filter0_f_850_1284" x="105.883" y="405.828" width="343.917" height="341.798" filterUnits="userSpaceOnUse" color-interpolation-filters="sRGB">
<feFlood flood-opacity="0" result="BackgroundImageFix"/>
<feBlend mode="normal" in="SourceGraphic" in2="BackgroundImageFix" result="shape"/>
<feGaussianBlur stdDeviation="35.2234" result="effect1_foregroundBlur_850_1284"/>
</filter>
<filter id="filter1_d_850_1284" x="0.212814" y="0.882736" width="878.66" height="905.262" filterUnits="userSpaceOnUse" color-interpolation-filters="sRGB">
<feFlood flood-opacity="0" result="BackgroundImageFix"/>
<feColorMatrix in="SourceAlpha" type="matrix" values="0 0 0 0 0 0 0 0 0 0 0 0 0 0 0 0 0 0 127 0" result="hardAlpha"/>
<feOffset/>
<feGaussianBlur stdDeviation="88.0586"/>
<feComposite in2="hardAlpha" operator="out"/>
<feColorMatrix type="matrix" values="0 0 0 0 0 0 0 0 0 0 0 0 0 0 0 0 0 0 0.4 0"/>
<feBlend mode="normal" in2="BackgroundImageFix" result="effect1_dropShadow_850_1284"/>
<feBlend mode="normal" in="SourceGraphic" in2="effect1_dropShadow_850_1284" result="shape"/>
</filter>
<linearGradient id="paint0_linear_850_1284" x1="663.941" y1="282.536" x2="274.178" y2="414.151" gradientUnits="userSpaceOnUse">
<stop stop-color="#2B99FF"/>
<stop offset="1" stop-color="#725BFF"/>
</linearGradient>
</defs>
</svg>
